<?xml version="1.0" standalone="no"?>
<!DOCTYPE svg PUBLIC "-//W3C//DTD SVG 20010904//EN"
 "http://www.w3.org/TR/2001/REC-SVG-20010904/DTD/svg10.dtd">
<svg version="1.0" xmlns="http://www.w3.org/2000/svg"
 width="1433.000000pt" height="1433.000000pt" viewBox="0 0 1433.000000 1433.000000"
 preserveAspectRatio="xMidYMid meet">
<metadata>
Created by potrace 1.14, written by Peter Selinger 2001-2017
</metadata>
<g transform="translate(0.000000,1433.000000) scale(0.100000,-0.100000)"
fill="#000000" stroke="none">
<path d="M1019 12436 c-2 -2 -28 -7 -57 -10 -156 -18 -326 -84 -466 -179 -211
-143 -373 -359 -445 -592 -54 -176 -51 130 -47 -4505 1 -2357 5 -4294 7 -4305
3 -11 9 -38 13 -60 39 -193 153 -402 301 -550 162 -163 334 -258 560 -311
l100 -23 6190 2 c3405 2 6206 6 6225 10 258 58 432 150 600 317 142 141 246
320 294 507 8 32 19 72 23 88 4 17 9 1958 10 4315 2 4678 6 4351 -53 4529 -98
293 -315 536 -598 668 -47 23 -207 75 -276 90 -34 7 -12373 17 -12381 9z"/>
</g>
</svg>
