
<svg viewBox="0 0 288 78.3" class="css-1j8o68f">
        <defs id="SvgjsDefs1183"></defs><g id="SvgjsG1184" featurekey="symbolContainer" transform="matrix(0.9,0,0,0.9,0,0)" fill="#ff7844">
            <rect xmlns="http://www.w3.org/2000/svg" width="75" height="87" rx="10" ry="10"></rect></g>
            <g id="SvgjsG1185" featurekey="monogramFeature-0" transform="matrix(1.1112296686733307,0,0,1.1112296686733307,12.667485728179269,-3.436428250907902)" fill="#111111">
                <path d="M31.479 17.499000000000002 c0.67626 -0.43412 3.7459 16.766 2.8561 16.6 c-3.8573 -0.034336 -7.6926 -0.19447 -11.497 -0.47602 c0.39979 2.9008 0.85674 5.7881 1.3697 8.6556 c0.9648 5.3554 2.1164 10.657 3.4957 15.781 c0.3839 0.80208 -17.009 2.461 -16.778 1.4783 c0.4214 -5.8371 1.118 -11.538 2.0046 -17.185 c0.50719 -3.1982 1.083 -6.3744 1.7224 -9.5316 c-3.652 -0.44239 -7.2708 -0.99342 -10.849 -1.6576 c-1.0843 -0.22184 -1.0582 -5.3357 -0.0088476 -5.7119 c9.5856 -1.8698 18.858 -4.5488 27.683 -7.953 z"></path></g>
    </svg>